<svg xmlns="http://www.w3.org/2000/svg" viewBox="0 0 512 512">
  <rect width="512" height="512" rx="42" fill="#fffdf5"/>
  <circle cx="256" cy="202" r="84" fill="#f4c07a"/>
  <path d="M143 421c19-86 69-134 113-134s94 48 113 134" fill="#ff7d73"/>
  <path d="M174 164c20-61 80-90 138-55 31 19 44 51 37 87-47-29-105-34-175-32z" fill="#7a4c31"/>
  <circle cx="225" cy="211" r="9" fill="#243044"/>
  <circle cx="287" cy="211" r="9" fill="#243044"/>
  <path d="M224 252c23 18 43 18 65 0" fill="none" stroke="#243044" stroke-width="13" stroke-linecap="round"/>
  <path d="M185 341h142v82H185z" fill="#ffd45a"/>
  <path d="M208 370h96" stroke="#243044" stroke-width="16" stroke-linecap="round"/>
</svg>
