<svg xmlns="http://www.w3.org/2000/svg" viewBox="0 0 512 512">
  <rect width="512" height="512" rx="42" fill="#e9f8ff"/>
  <circle cx="256" cy="206" r="86" fill="#f5c77a"/>
  <path d="M149 406c20-82 67-122 107-122s87 40 107 122" fill="#5fc178"/>
  <path d="M170 190c18-72 65-108 130-78 39 18 58 50 53 93-55-28-111-28-183-15z" fill="#243044"/>
  <circle cx="225" cy="209" r="9" fill="#243044"/>
  <circle cx="287" cy="209" r="9" fill="#243044"/>
  <path d="M223 252c24 20 45 20 67 0" fill="none" stroke="#243044" stroke-width="13" stroke-linecap="round"/>
  <path d="M126 387h260v72H126z" fill="#243044"/>
  <path d="M171 381l85 51 85-51" fill="none" stroke="#fffdf5" stroke-width="20" stroke-linecap="round"/>
</svg>
