<svg xmlns="http://www.w3.org/2000/svg" viewBox="0 0 512 512">
  <rect width="512" height="512" rx="42" fill="#fff6fb"/>
  <circle cx="256" cy="198" r="82" fill="#f1bd78"/>
  <path d="M145 420c19-84 68-132 111-132s92 48 111 132" fill="#b474e8"/>
  <path d="M179 151c36-58 129-58 157 18 9 24 5 47-4 65-43-30-92-49-157-48-9-14-9-24 4-35z" fill="#3b2d4c"/>
  <circle cx="225" cy="207" r="9" fill="#243044"/>
  <circle cx="287" cy="207" r="9" fill="#243044"/>
  <path d="M224 248c22 17 42 17 64 0" fill="none" stroke="#243044" stroke-width="13" stroke-linecap="round"/>
  <rect x="174" y="330" width="164" height="94" rx="18" fill="#243044"/>
  <circle cx="256" cy="377" r="35" fill="#75bdf2"/>
  <circle cx="256" cy="377" r="18" fill="#fffdf5"/>
</svg>
